<?xml version="1.0" encoding="UTF-8" ?>
<!DOCTYPE svg PUBLIC "-//W3C//DTD SVG 1.1//EN" "http://www.w3.org/Graphics/SVG/1.1/DTD/svg11.dtd">
<svg width="467pt" height="196pt" viewBox="0 0 467 196" version="1.1" xmlns="http://www.w3.org/2000/svg">
<path fill="#010101" d=" M 239.10 22.84 C 253.37 22.71 267.64 22.77 281.91 22.81 C 280.06 27.64 278.18 32.46 276.41 37.32 C 288.26 37.48 300.12 37.33 311.98 37.39 C 307.29 49.50 302.69 61.65 297.95 73.74 C 274.60 73.72 251.25 73.80 227.90 73.70 C 228.43 72.36 228.96 71.02 229.50 69.68 C 235.00 68.78 240.56 68.10 245.94 66.58 C 241.92 64.37 237.54 62.98 233.20 61.55 C 233.20 60.98 233.19 59.83 233.18 59.26 C 238.82 58.13 244.56 57.46 250.11 55.90 C 246.13 53.53 241.50 52.62 237.45 50.44 C 237.28 50.08 236.94 49.36 236.78 49.00 C 242.45 46.98 248.58 46.91 254.31 45.05 C 250.04 42.94 245.52 41.46 241.05 39.87 C 241.20 39.32 241.50 38.22 241.66 37.67 C 247.31 36.65 253.06 35.96 258.57 34.25 C 251.89 31.37 244.96 29.11 238.10 26.70 C 238.42 25.41 238.76 24.12 239.10 22.84 Z" />
<path fill="#010101" d=" M 53.25 37.42 C 64.83 37.35 76.40 37.39 87.98 37.39 C 84.66 47.27 79.73 56.65 77.58 66.89 C 79.80 66.78 82.22 67.28 84.31 66.30 C 86.07 64.86 86.70 62.55 87.56 60.54 C 90.41 52.80 93.38 45.10 96.31 37.38 C 103.96 37.39 111.62 37.37 119.27 37.41 C 115.93 47.28 111.08 56.66 108.68 66.82 C 110.89 66.78 113.25 67.24 115.36 66.39 C 117.26 65.12 117.88 62.74 118.75 60.76 C 121.62 52.96 124.58 45.20 127.47 37.41 C 136.60 37.35 145.72 37.41 154.85 37.39 C 150.14 49.49 145.52 61.62 140.83 73.73 C 106.98 73.66 73.13 73.95 39.28 73.58 C 40.04 72.30 40.73 70.96 41.69 69.82 C 46.94 68.30 52.52 68.29 57.70 66.42 C 53.13 64.24 48.23 62.88 43.66 60.69 C 49.10 57.29 55.80 57.87 61.75 55.96 C 57.35 53.40 52.37 52.13 47.81 49.92 C 53.21 46.43 60.01 47.35 65.82 44.92 C 61.59 42.94 57.16 41.46 52.76 39.93 C 52.88 39.30 53.13 38.05 53.25 37.42 Z" />
<path fill="#010101" d=" M 163.18 37.42 C 186.56 37.37 209.93 37.38 233.31 37.41 C 230.14 45.29 227.87 53.61 223.92 61.12 C 212.04 61.57 200.12 61.03 188.23 61.36 C 187.98 63.16 187.75 64.96 187.56 66.77 C 199.06 67.42 210.57 66.88 222.08 67.11 C 221.26 69.30 220.44 71.49 219.64 73.69 C 196.04 73.71 172.43 73.94 148.83 73.56 C 149.72 72.29 150.53 70.94 151.64 69.83 C 156.84 68.26 162.41 68.26 167.55 66.38 C 163.25 64.42 158.78 62.92 154.31 61.43 C 154.37 60.90 154.51 59.84 154.57 59.31 C 160.24 58.11 166.01 57.40 171.62 55.95 C 167.14 53.45 162.12 52.16 157.54 49.86 C 163.06 46.62 169.72 47.09 175.66 45.13 C 171.51 42.87 166.96 41.49 162.52 39.91 C 162.68 39.29 163.01 38.04 163.18 37.42 Z" />
<path fill="#ffffff" d=" M 194.89 45.89 C 196.62 43.49 200.03 44.44 202.55 44.13 C 202.13 47.13 201.74 50.36 199.83 52.84 C 197.67 55.23 194.08 54.29 191.24 54.62 C 192.34 51.68 193.15 48.55 194.89 45.89 Z" />
<path fill="#ffffff" d=" M 273.59 44.09 C 276.23 44.17 278.87 44.31 281.50 44.61 C 279.52 51.31 277.08 57.90 274.27 64.29 C 272.68 67.90 268.08 66.79 264.94 67.19 C 267.70 59.44 270.77 51.81 273.59 44.09 Z" />
<path fill="#010101" d=" M 198.24 82.32 C 205.20 82.19 212.16 82.22 219.11 82.24 C 218.71 83.15 218.31 84.05 217.91 84.95 C 215.68 85.03 213.45 85.11 211.22 85.20 C 211.05 85.93 210.71 87.38 210.54 88.10 C 212.68 88.16 214.82 88.22 216.96 88.28 C 216.53 89.09 216.11 89.91 215.69 90.73 C 213.51 90.85 211.34 90.97 209.18 91.11 C 207.67 95.03 206.17 98.96 204.68 102.89 C 199.79 103.12 194.85 103.24 189.99 102.51 C 192.33 101.46 194.79 100.75 197.23 100.03 C 195.64 99.14 194.03 98.27 192.45 97.35 C 194.75 96.75 197.05 96.20 199.35 95.61 C 197.45 94.76 195.55 93.93 193.67 93.07 C 196.13 92.47 198.61 91.97 201.09 91.44 C 199.26 90.49 197.41 89.57 195.61 88.58 C 197.94 88.01 200.29 87.51 202.63 86.95 C 201.04 86.20 199.44 85.48 197.85 84.76 C 197.95 84.15 198.15 82.93 198.24 82.32 Z" />
<path fill="#010101" d=" M 100.65 88.32 C 110.48 88.02 120.32 88.22 130.15 88.20 C 128.33 93.10 126.40 97.96 124.60 102.87 C 119.75 103.09 114.89 103.06 110.04 103.05 C 109.31 104.76 108.59 106.49 107.87 108.21 C 103.23 108.22 98.58 108.23 93.93 108.19 C 94.77 105.94 95.58 103.69 96.41 101.44 C 98.69 101.01 100.98 100.59 103.26 100.16 C 101.37 99.26 99.46 98.40 97.57 97.48 C 99.82 96.86 102.09 96.33 104.35 95.77 C 102.71 94.81 101.05 93.89 99.42 92.91 C 101.72 92.40 104.02 91.93 106.33 91.46 C 104.42 90.43 102.51 89.41 100.65 88.32 Z" />
<path fill="#010101" d=" M 132.68 88.30 C 142.51 88.04 152.36 88.21 162.20 88.21 C 161.01 91.41 159.81 94.61 158.64 97.82 C 153.68 97.93 148.72 97.89 143.76 97.89 C 143.73 98.48 143.67 99.65 143.64 100.24 C 148.37 100.28 153.10 100.27 157.84 100.30 C 157.45 101.14 157.06 101.99 156.67 102.84 C 146.86 102.99 136.98 103.58 127.21 102.45 C 129.77 101.36 132.48 100.68 135.17 100.00 C 133.31 99.18 131.44 98.39 129.59 97.56 C 131.86 96.88 134.14 96.30 136.42 95.66 C 134.74 94.75 133.05 93.87 131.39 92.93 C 133.70 92.42 136.02 91.97 138.34 91.50 C 136.44 90.44 134.54 89.41 132.68 88.30 Z" />
<path fill="#010101" d=" M 164.70 88.30 C 174.25 88.07 183.81 88.15 193.37 88.26 C 192.58 89.95 191.84 91.68 190.82 93.25 C 186.65 94.10 182.37 93.28 178.93 90.75 C 177.19 94.78 175.63 98.89 174.04 102.98 C 169.10 103.11 164.13 103.23 159.23 102.44 C 161.79 101.36 164.50 100.69 167.19 100.00 C 165.33 99.19 163.47 98.40 161.63 97.57 C 163.87 96.89 166.13 96.29 168.39 95.64 C 166.72 94.74 165.05 93.86 163.41 92.93 C 165.72 92.41 168.05 91.95 170.37 91.47 C 168.47 90.42 166.56 89.40 164.70 88.30 Z" />
<path fill="#010101" d=" M 218.60 88.33 C 228.43 88.01 238.26 88.23 248.09 88.20 C 246.26 93.10 244.33 97.95 242.54 102.86 C 232.75 102.98 222.89 103.58 213.14 102.44 C 215.71 101.33 218.43 100.67 221.14 100.01 C 219.24 99.20 217.34 98.39 215.46 97.55 C 217.73 96.91 219.99 96.27 222.28 95.68 C 220.62 94.76 218.96 93.86 217.32 92.92 C 219.64 92.41 221.98 91.94 224.31 91.47 C 222.39 90.45 220.48 89.42 218.60 88.33 Z" />
<path fill="#010101" d=" M 250.63 88.33 C 260.12 88.01 269.61 88.23 279.10 88.20 C 278.40 89.95 277.70 91.70 277.02 93.46 C 272.76 93.69 268.35 93.52 264.88 90.74 C 263.09 94.76 261.54 98.87 259.97 102.97 C 255.03 103.09 250.06 103.23 245.17 102.44 C 247.74 101.34 250.45 100.69 253.15 100.02 C 251.28 99.20 249.39 98.39 247.53 97.53 C 249.77 96.89 252.04 96.32 254.31 95.76 C 252.67 94.81 251.02 93.88 249.41 92.90 C 251.71 92.39 254.03 91.94 256.35 91.49 C 254.43 90.45 252.51 89.42 250.63 88.33 Z" />
<path fill="#010101" d=" M 281.51 88.27 C 295.47 88.09 309.44 88.18 323.40 88.22 C 321.59 93.14 319.68 98.03 317.79 102.92 C 314.10 103.02 310.40 103.06 306.71 103.01 C 308.13 99.03 309.65 95.09 311.09 91.11 C 310.31 91.11 308.75 91.09 307.97 91.08 C 306.27 95.04 304.71 99.06 303.10 103.06 C 300.05 103.03 297.00 102.98 293.96 102.92 C 295.43 98.97 296.96 95.05 298.34 91.06 C 297.54 91.10 295.94 91.16 295.14 91.20 C 293.56 95.07 292.03 98.96 290.60 102.89 C 285.69 103.12 280.73 103.24 275.86 102.46 C 278.22 101.43 280.70 100.73 283.18 100.03 C 281.56 99.13 279.93 98.22 278.33 97.28 C 280.61 96.77 282.90 96.28 285.19 95.79 C 283.33 94.84 281.47 93.89 279.62 92.93 C 281.89 92.46 284.17 92.01 286.46 91.58 C 284.80 90.48 283.13 89.41 281.51 88.27 Z" />
<path fill="#010101" d=" M 326.65 88.25 C 336.24 88.10 345.84 88.18 355.43 88.21 C 353.64 93.15 351.74 98.04 349.83 102.92 C 340.01 102.90 330.12 103.63 320.34 102.43 C 322.89 101.41 325.54 100.72 328.20 100.03 C 326.38 99.11 324.55 98.23 322.76 97.28 C 325.20 96.75 327.67 96.31 330.12 95.81 C 328.34 94.94 326.55 94.09 324.79 93.20 C 331.09 92.65 338.04 94.84 343.85 91.63 C 337.94 90.43 331.90 90.93 325.92 90.90 C 326.11 90.24 326.47 88.91 326.65 88.25 Z" />
<path fill="#010101" d=" M 358.30 88.30 C 368.01 88.03 377.74 88.22 387.45 88.20 C 385.68 93.15 383.78 98.06 381.86 102.95 C 378.17 103.03 374.48 103.06 370.80 103.01 C 372.24 99.04 373.76 95.10 375.18 91.12 C 374.38 91.13 372.78 91.13 371.98 91.13 C 370.39 95.00 368.87 98.91 367.46 102.86 C 362.43 103.11 357.36 103.26 352.37 102.44 C 354.91 101.42 357.56 100.73 360.21 100.03 C 358.41 99.12 356.61 98.23 354.84 97.29 C 357.29 96.77 359.75 96.30 362.21 95.82 C 360.35 94.89 358.48 93.99 356.63 93.05 C 358.87 92.47 361.13 91.95 363.39 91.41 C 361.68 90.39 359.97 89.38 358.30 88.30 Z" />
<path fill="#010101" d=" M 390.33 88.30 C 400.03 88.02 409.73 88.26 419.43 88.17 C 418.88 89.90 418.34 91.62 417.81 93.36 C 413.08 93.69 408.14 93.72 404.14 90.80 C 402.90 93.90 401.72 97.02 400.63 100.18 C 405.44 100.30 410.24 100.26 415.05 100.32 C 414.65 101.19 414.26 102.06 413.87 102.93 C 404.13 102.69 394.30 103.83 384.63 102.33 C 387.13 101.40 389.71 100.71 392.28 100.02 C 390.47 99.13 388.65 98.24 386.86 97.30 C 389.30 96.78 391.76 96.31 394.22 95.82 C 392.36 94.89 390.50 93.99 388.65 93.05 C 390.90 92.48 393.16 91.96 395.42 91.42 C 393.71 90.39 392.00 89.38 390.33 88.30 Z" />
<path fill="#010101" d=" M 422.47 88.27 C 432.21 88.05 441.96 88.23 451.71 88.19 C 450.42 91.42 449.16 94.66 447.93 97.91 C 442.69 98.37 436.64 96.39 432.08 99.71 C 437.04 100.56 442.09 100.23 447.11 100.30 C 446.72 101.18 446.34 102.06 445.96 102.94 C 436.24 102.76 426.47 103.69 416.80 102.47 C 419.19 101.43 421.71 100.72 424.23 100.00 C 422.44 99.11 420.64 98.23 418.88 97.29 C 421.32 96.79 423.77 96.31 426.22 95.83 C 424.33 94.86 422.43 93.92 420.54 92.94 C 422.83 92.47 425.13 92.03 427.44 91.60 C 425.77 90.49 424.10 89.42 422.47 88.27 Z" />
<path fill="#ffffff" d=" M 114.29 91.25 C 115.17 91.17 116.91 91.03 117.79 90.96 C 116.39 94.70 115.92 100.03 111.13 100.87 C 112.02 97.61 113.18 94.43 114.29 91.25 Z" />
<path fill="#ffffff" d=" M 146.49 91.28 C 147.60 91.20 148.72 91.11 149.83 91.04 C 149.43 92.28 149.01 93.52 148.59 94.75 C 147.41 94.93 146.23 95.11 145.05 95.28 C 145.51 93.94 145.99 92.61 146.49 91.28 Z" />
<path fill="#ffffff" d=" M 229.36 100.81 C 230.33 96.87 230.88 91.61 235.50 90.27 C 234.58 94.22 234.10 99.65 229.36 100.81 Z" />
<path fill="#ffffff" d=" M 435.72 91.43 C 436.80 91.24 437.89 91.06 438.98 90.88 C 438.77 92.09 438.56 93.30 438.35 94.51 C 437.11 94.78 435.86 95.04 434.63 95.30 C 434.98 94.01 435.35 92.72 435.72 91.43 Z" />
<path fill="#ffffff" d=" M 337.68 96.50 C 338.82 96.27 339.97 96.05 341.12 95.83 C 340.71 97.30 340.30 98.77 339.89 100.24 C 339.09 100.23 337.50 100.21 336.70 100.20 C 337.02 98.97 337.35 97.73 337.68 96.50 Z" />
<path fill="#010101" d=" M 20.57 122.41 C 21.33 117.53 24.51 112.19 30.05 112.23 C 41.70 111.81 53.37 112.25 65.03 112.04 C 69.09 112.12 73.95 111.67 77.04 114.87 C 79.81 117.66 79.79 122.00 78.43 125.46 C 75.23 134.63 71.73 143.69 68.59 152.88 C 72.63 152.91 76.67 152.91 80.72 152.83 C 83.04 148.19 84.29 143.14 86.27 138.37 C 87.59 135.03 87.83 131.10 90.34 128.34 C 92.78 125.73 96.64 125.62 99.96 125.53 C 115.31 125.58 130.65 125.57 146.00 125.56 C 153.67 125.41 161.34 126.15 169.01 125.59 C 189.68 125.64 210.35 125.32 231.01 125.83 C 240.15 125.37 249.30 125.61 258.44 125.58 C 259.49 120.62 260.58 113.79 266.53 112.58 C 274.95 111.42 283.52 112.40 292.00 112.05 C 296.63 112.19 302.38 111.26 305.78 115.21 C 308.38 118.07 307.66 122.16 307.31 125.65 C 325.53 125.49 343.76 125.55 361.99 125.61 C 368.99 126.14 375.99 125.44 383.00 125.55 C 398.67 125.56 414.35 125.59 430.02 125.53 C 433.60 125.57 437.80 125.67 440.33 128.60 C 442.77 131.30 442.86 135.29 441.65 138.56 C 438.43 147.98 434.82 157.26 431.60 166.68 C 430.55 169.45 429.74 172.50 427.56 174.64 C 425.31 176.79 421.99 176.97 419.06 177.11 C 410.95 177.19 402.84 177.26 394.75 176.64 C 382.44 177.28 370.06 177.46 357.75 176.63 C 339.19 177.62 320.58 176.89 302.01 177.14 C 296.98 177.36 292.00 176.64 287.01 176.31 C 281.69 176.83 276.35 177.34 270.99 177.14 C 253.04 176.88 235.05 177.63 217.11 176.63 C 207.09 177.34 197.01 177.35 186.98 176.65 C 174.34 177.31 161.64 177.41 149.00 176.62 C 138.02 177.47 127.00 177.01 116.00 177.12 C 104.99 177.02 93.98 177.39 82.98 176.82 C 63.65 177.43 44.29 176.96 24.95 177.16 C 20.96 177.09 16.12 177.12 13.47 173.60 C 10.99 170.53 11.45 166.26 12.99 162.87 C 15.45 157.46 16.99 151.70 19.18 146.18 C 20.34 141.62 23.24 137.59 23.57 132.82 C 22.47 129.40 19.43 126.25 20.57 122.41 Z" />
<path fill="#eddfb0" d=" M 30.13 121.11 C 43.59 120.70 57.06 120.93 70.52 120.97 C 66.12 134.54 60.36 147.66 56.45 161.38 C 64.68 162.28 72.97 161.65 81.23 161.90 C 80.50 163.98 79.76 166.06 79.02 168.14 C 59.54 168.18 40.06 168.21 20.59 168.12 C 20.94 166.91 21.30 165.70 21.66 164.50 C 26.51 163.67 31.39 162.92 36.08 161.38 C 32.02 159.46 27.68 158.05 23.99 155.44 C 29.12 153.72 34.54 153.11 39.70 151.50 C 35.58 149.54 31.22 148.08 27.35 145.64 C 32.53 143.69 38.07 143.13 43.37 141.65 C 39.78 139.77 35.81 138.73 32.32 136.67 C 32.20 136.31 31.96 135.58 31.84 135.21 C 36.72 133.64 41.90 133.27 46.75 131.57 C 41.08 128.82 35.12 126.76 29.21 124.59 C 29.52 123.43 29.82 122.27 30.13 121.11 Z" />
<path fill="#eddfb0" d=" M 269.00 120.91 C 279.01 120.94 289.01 120.81 299.02 121.00 C 293.42 136.74 287.69 152.44 282.02 168.15 C 261.71 168.19 241.39 168.18 221.08 168.15 C 221.54 166.91 222.01 165.67 222.50 164.44 C 227.29 163.61 232.11 162.85 236.76 161.40 C 232.72 159.48 228.39 158.10 224.79 155.38 C 229.92 153.66 235.34 153.08 240.49 151.45 C 236.36 149.54 231.99 148.07 228.20 145.49 C 233.30 143.70 238.73 143.21 243.85 141.48 C 239.81 139.50 235.13 138.42 231.97 134.99 C 244.80 133.91 257.72 134.79 270.58 134.49 C 271.42 131.89 272.28 129.30 273.10 126.69 C 271.22 125.88 269.35 125.06 267.49 124.23 C 267.99 123.12 268.50 122.01 269.00 120.91 Z" />
<path fill="#eddfb0" d=" M 95.22 135.08 C 100.77 134.21 106.40 134.52 112.00 134.50 C 127.15 134.57 142.31 134.39 157.46 134.59 C 153.67 145.78 149.40 156.81 145.57 168.00 C 125.29 168.37 105.00 168.11 84.72 168.13 C 85.05 166.91 85.38 165.69 85.71 164.48 C 90.63 163.61 95.60 162.86 100.39 161.38 C 96.24 159.52 91.81 158.13 88.10 155.42 C 93.22 153.69 98.64 153.11 103.79 151.47 C 99.74 149.57 95.41 148.14 91.81 145.39 C 96.95 143.68 102.35 143.09 107.53 141.53 C 103.33 139.57 98.61 138.42 95.22 135.08 Z" />
<path fill="#eddfb0" d=" M 165.02 134.53 C 185.26 134.52 205.50 134.42 225.74 134.58 C 221.94 145.82 217.72 156.90 213.77 168.09 C 205.88 168.23 197.98 168.19 190.09 168.14 C 193.08 158.95 197.25 150.12 199.32 140.65 C 196.55 140.90 192.69 140.31 191.74 143.73 C 188.46 151.74 185.82 160.00 182.80 168.11 C 172.82 168.21 162.83 168.20 152.86 168.11 C 153.33 166.85 153.83 165.60 154.34 164.36 C 159.13 163.60 163.94 162.83 168.58 161.38 C 164.46 159.46 160.09 158.03 156.27 155.51 C 161.46 153.64 166.97 153.05 172.27 151.61 C 168.19 149.59 163.78 148.15 160.05 145.45 C 165.14 143.66 170.53 143.13 175.67 141.54 C 171.93 139.71 168.04 138.21 164.15 136.74 C 164.37 136.19 164.80 135.08 165.02 134.53 Z" />
<path fill="#eddfb0" d=" M 303.13 135.04 C 306.72 134.52 310.36 134.44 313.99 134.47 C 331.09 134.60 348.20 134.37 365.30 134.59 C 361.52 145.77 357.23 156.77 353.45 167.95 C 333.15 168.43 312.84 168.09 292.53 168.12 C 292.88 166.89 293.24 165.67 293.60 164.45 C 298.45 163.63 303.34 162.90 308.04 161.37 C 303.98 159.47 299.64 158.09 296.00 155.41 C 301.11 153.66 306.53 153.09 311.69 151.48 C 307.59 149.52 303.24 148.04 299.41 145.55 C 304.56 143.66 310.05 143.12 315.32 141.65 C 311.20 139.55 306.45 138.44 303.13 135.04 Z" />
<path fill="#eddfb0" d=" M 371.32 135.08 C 377.17 134.17 383.10 134.55 389.00 134.50 C 403.86 134.56 418.72 134.39 433.58 134.59 C 429.78 145.81 425.53 156.86 421.67 168.05 C 413.76 168.25 405.86 168.21 397.95 168.10 C 400.90 158.92 405.06 150.11 407.18 140.68 C 405.24 140.80 403.27 140.76 401.40 141.29 C 399.46 142.96 398.80 145.56 397.89 147.85 C 395.56 154.62 393.02 161.31 390.68 168.07 C 380.55 168.17 370.42 168.40 360.30 167.92 C 361.42 166.58 362.04 164.41 364.01 164.15 C 368.15 163.16 372.40 162.67 376.47 161.40 C 372.34 159.49 367.95 158.07 364.17 155.47 C 369.28 153.68 374.71 153.13 379.85 151.45 C 375.83 149.53 371.53 148.12 367.94 145.41 C 373.05 143.65 378.47 143.11 383.64 141.54 C 379.45 139.55 374.76 138.36 371.32 135.08 Z" />
<path fill="#010101" d=" M 125.38 141.21 C 127.22 140.76 129.13 140.78 131.01 140.69 C 129.95 146.00 128.02 151.08 126.19 156.16 C 125.46 157.96 124.81 159.93 123.35 161.29 C 121.48 161.83 119.52 161.86 117.61 162.06 C 118.42 156.61 120.47 151.48 122.33 146.33 C 123.11 144.52 123.68 142.40 125.38 141.21 Z" />
<path fill="#010101" d=" M 260.25 143.29 C 261.45 140.06 265.46 140.97 268.16 140.51 C 265.76 147.73 263.10 154.85 260.56 162.02 C 258.32 161.84 256.09 161.63 253.86 161.34 C 255.83 155.28 257.61 149.11 260.25 143.29 Z" />
<path fill="#010101" d=" M 333.28 141.27 C 335.05 140.81 336.89 140.74 338.70 140.56 C 337.89 145.91 335.91 150.98 334.06 156.05 C 333.32 157.89 332.63 159.83 331.26 161.32 C 329.32 161.86 327.28 161.76 325.29 161.84 C 326.38 156.45 328.37 151.30 330.24 146.14 C 331.01 144.42 331.56 142.30 333.28 141.27 Z" />
</svg>
